<?xml version="1.0" encoding="iso-8859-1" standalone="no"?> 
<?xml-stylesheet href="sec-special-matrix.css" type="text/css"?> 
<svg xmlns="http://www.w3.org/2000/svg" xmlns:xlink="http://www.w3.org/1999/xlink" width="84.46231pt" height="72.61786pt" viewBox="-42.23116 -36.30893 84.46231 72.61786 "> 
<g transform="translate(0, 36.30893 ) scale(1,-1) translate(0,36.30893 )"> 
             </p>
             <g stroke="#000" fill="#000">
 <g stroke-width="0.4">
 <g transform="translate(-29.16489,-29.44298)">
 <g fill="#000">
 <text style="stroke:none" transform="scale(1,-1) translate(29.16489,0)" text-anchor="middle"  font-size="10"> 
  <g transform="translate(-2.5,0.0)">
 <g fill="#000">
 <text style="stroke:none" transform="scale(1,-1) translate(2.5,0)" text-anchor="middle"  font-size="10"> 
<g fill="#000">
 <g stroke="none"> 1</g> </g>
 </text> 
</g>
 </g>
   <g transform="translate(-2.5,0.0)">
 <g fill="#000">
 <text style="stroke:none" transform="scale(1,-1) translate(2.5,0)" text-anchor="middle"  font-size="10"> 
<g fill="#000">
 <g stroke="none"> 0</g> </g>
 </text> 
</g>
 </g>
   <g transform="translate(-2.5,0.0)">
 <g fill="#000">
 <text style="stroke:none" transform="scale(1,-1) translate(2.5,0)" text-anchor="middle"  font-size="10"> 
<g fill="#000">
 <g stroke="none"> 0</g> </g>
 </text> 
</g>
 </g>
   <g transform="translate(-2.5,0.0)">
 <g fill="#000">
 <text style="stroke:none" transform="scale(1,-1) translate(2.5,0)" text-anchor="middle"  font-size="10"> 
<g fill="#000">
 <g stroke="none"> 0</g> </g>
 </text> 
</g>
 </g>
   <g transform="translate(-2.5,0.0)">
 <g fill="#000">
 <text style="stroke:none" transform="scale(1,-1) translate(2.5,0)" text-anchor="middle"  font-size="10"> 
<g fill="#000">
 <g stroke="none"> 0</g> </g>
 </text> 
</g>
 </g>
 
  <g transform="translate(-2.5,0.0)">
 <g fill="#000">
 <text style="stroke:none" transform="scale(1,-1) translate(2.5,0)" text-anchor="middle"  font-size="10"> 
<g fill="#000">
 <g stroke="none"> 0</g> </g>
 </text> 
</g>
 </g>
   <g transform="translate(-2.5,0.0)">
 <g fill="#000">
 <text style="stroke:none" transform="scale(1,-1) translate(2.5,0)" text-anchor="middle"  font-size="10"> 
<g fill="#000">
 <g stroke="none"> 3</g> </g>
 </text> 
</g>
 </g>
   <g transform="translate(-2.5,0.0)">
 <g fill="#000">
 <text style="stroke:none" transform="scale(1,-1) translate(2.5,0)" text-anchor="middle"  font-size="10"> 
<g fill="#000">
 <g stroke="none"> 1</g> </g>
 </text> 
</g>
 </g>
   <g transform="translate(-2.5,0.0)">
 <g fill="#000">
 <text style="stroke:none" transform="scale(1,-1) translate(2.5,0)" text-anchor="middle"  font-size="10"> 
<g fill="#000">
 <g stroke="none"> 0</g> </g>
 </text> 
</g>
 </g>
   <g transform="translate(-2.5,0.0)">
 <g fill="#000">
 <text style="stroke:none" transform="scale(1,-1) translate(2.5,0)" text-anchor="middle"  font-size="10"> 
<g fill="#000">
 <g stroke="none"> 0</g> </g>
 </text> 
</g>
 </g>
 
  <g transform="translate(-2.5,0.0)">
 <g fill="#000">
 <text style="stroke:none" transform="scale(1,-1) translate(2.5,0)" text-anchor="middle"  font-size="10"> 
<g fill="#000">
 <g stroke="none"> 0</g> </g>
 </text> 
</g>
 </g>
   <g transform="translate(-2.5,0.0)">
 <g fill="#000">
 <text style="stroke:none" transform="scale(1,-1) translate(2.5,0)" text-anchor="middle"  font-size="10"> 
<g fill="#000">
 <g stroke="none"> 0</g> </g>
 </text> 
</g>
 </g>
   <g transform="translate(-2.5,0.0)">
 <g fill="#000">
 <text style="stroke:none" transform="scale(1,-1) translate(2.5,0)" text-anchor="middle"  font-size="10"> 
<g fill="#000">
 <g stroke="none"> 3</g> </g>
 </text> 
</g>
 </g>
   <g transform="translate(-2.5,0.0)">
 <g fill="#000">
 <text style="stroke:none" transform="scale(1,-1) translate(2.5,0)" text-anchor="middle"  font-size="10"> 
<g fill="#000">
 <g stroke="none"> 0</g> </g>
 </text> 
</g>
 </g>
   <g transform="translate(-2.5,0.0)">
 <g fill="#000">
 <text style="stroke:none" transform="scale(1,-1) translate(2.5,0)" text-anchor="middle"  font-size="10"> 
<g fill="#000">
 <g stroke="none"> 0</g> </g>
 </text> 
</g>
 </g>
 
  <g transform="translate(-2.5,0.0)">
 <g fill="#000">
 <text style="stroke:none" transform="scale(1,-1) translate(2.5,0)" text-anchor="middle"  font-size="10"> 
<g fill="#000">
 <g stroke="none"> 0</g> </g>
 </text> 
</g>
 </g>
   <g transform="translate(-2.5,0.0)">
 <g fill="#000">
 <text style="stroke:none" transform="scale(1,-1) translate(2.5,0)" text-anchor="middle"  font-size="10"> 
<g fill="#000">
 <g stroke="none"> 0</g> </g>
 </text> 
</g>
 </g>
   <g transform="translate(-2.5,0.0)">
 <g fill="#000">
 <text style="stroke:none" transform="scale(1,-1) translate(2.5,0)" text-anchor="middle"  font-size="10"> 
<g fill="#000">
 <g stroke="none"> 0</g> </g>
 </text> 
</g>
 </g>
   <g transform="translate(-2.5,0.0)">
 <g fill="#000">
 <text style="stroke:none" transform="scale(1,-1) translate(2.5,0)" text-anchor="middle"  font-size="10"> 
<g fill="#000">
 <g stroke="none"> 4</g> </g>
 </text> 
</g>
 </g>
   <g transform="translate(-2.5,0.0)">
 <g fill="#000">
 <text style="stroke:none" transform="scale(1,-1) translate(2.5,0)" text-anchor="middle"  font-size="10"> 
<g fill="#000">
 <g stroke="none"> 0</g> </g>
 </text> 
</g>
 </g>
 
  <g transform="translate(-2.5,0.0)">
 <g fill="#000">
 <text style="stroke:none" transform="scale(1,-1) translate(2.5,0)" text-anchor="middle"  font-size="10"> 
<g fill="#000">
 <g stroke="none"> 0</g> </g>
 </text> 
</g>
 </g>
   <g transform="translate(-2.5,0.0)">
 <g fill="#000">
 <text style="stroke:none" transform="scale(1,-1) translate(2.5,0)" text-anchor="middle"  font-size="10"> 
<g fill="#000">
 <g stroke="none"> 0</g> </g>
 </text> 
</g>
 </g>
   <g transform="translate(-2.5,0.0)">
 <g fill="#000">
 <text style="stroke:none" transform="scale(1,-1) translate(2.5,0)" text-anchor="middle"  font-size="10"> 
<g fill="#000">
 <g stroke="none"> 0</g> </g>
 </text> 
</g>
 </g>
   <g transform="translate(-2.5,0.0)">
 <g fill="#000">
 <text style="stroke:none" transform="scale(1,-1) translate(2.5,0)" text-anchor="middle"  font-size="10"> 
<g fill="#000">
 <g stroke="none"> 0</g> </g>
 </text> 
</g>
 </g>
   <g transform="translate(-2.5,0.0)">
 <g fill="#000">
 <text style="stroke:none" transform="scale(1,-1) translate(2.5,0)" text-anchor="middle"  font-size="10"> 
<g fill="#000">
 <g stroke="none"> 4</g> </g>
 </text> 
</g>
 </g>
 </text> 
</g>
 </g>
 <g transform="translate(-42.23116,-2.5)">
 <g fill="#000">
 <text style="stroke:none" transform="scale(1,-1) translate(4.76665,0)" text-anchor="middle"  font-size="10"> 
<g fill="#000">
 <g stroke="none"> <img 
src="sec-special-matrix0x.png" alt="⌊

||
||
||
⌈"  class="left" align="middle" /></g> </g>
 </text> 
</g>
 </g>
 <g transform="translate(32.69786,-2.5)">
 <g fill="#000">
 <text style="stroke:none" transform="scale(1,-1) translate(4.76665,0)" text-anchor="middle"  font-size="10"> 
<g fill="#000">
 <g stroke="none"> <img 
src="sec-special-matrix1x.png" alt="⌋

||
||
||
⌉"  class="left" align="middle" /></g> </g>
 </text> 
</g>
 </g>
 <path d=" M -29.36488 19.46558 M -29.36488 19.46558 L -29.36488 32.97595 L -17.29893 32.97595 L -17.29893 19.46558 Z M -17.29893 32.97595  " fill="none"/>
 <path d=" M -17.29893 19.46558 M -17.29893 19.46558 L -17.29893 -6.3552 L 5.63298 -6.3552 L 5.63298 19.46558 Z M 5.63298 -6.3552  " fill="none"/>
 <path d=" M 5.63298 -19.86557 M 5.63298 -19.86557 L 5.63298 -6.3552 L 17.69893 -6.3552 L 17.69893 -19.86557 Z M 17.69893 -6.3552  " fill="none"/>
 <path d=" M 17.69893 -19.86557 M 17.69893 -19.86557 L 17.69893 -32.97595 L 29.36488 -32.97595 L 29.36488 -19.86557 Z M 29.36488 -32.97595  " fill="none"/>
 </g>
 </g>
 
            </g> 
</svg> 
