<?xml version="1.0" encoding="UTF-8" standalone="no"?>
<!DOCTYPE svg PUBLIC "-//W3C//DTD SVG 1.1//EN" "http://www.w3.org/Graphics/SVG/1.1/DTD/svg11.dtd">
<svg xmlns="http://www.w3.org/2000/svg" xmlns:xlink="http://www.w3.org/1999/xlink" version="1.1" width="81.711pt" height="73.232pt" viewBox="0 0 81.711 73.232">
<g enable-background="new">
<symbol id="font_0_2">
<path d="M .205 .64000007 C .205 .66400006 .205 .666 .18200003 .666 C .120000008 .60200008 .032000007 .60200008 0 .60200008 L 0 .57100006 C .020000004 .57100006 .07900001 .57100006 .13100001 .597 L .13100001 .079 C .13100001 .043 .128 .031000002 .038000004 .031000002 L .0060000049 .031000002 L .0060000049 0 C .04100001 .003 .128 .003 .168 .003 C .20800002 .003 .29500003 .003 .33000005 0 L .33000005 .031000002 L .29800005 .031000002 C .20800002 .031000002 .205 .042000005 .205 .079 L .205 .64000007 Z "/>
</symbol>
<use xlink:href="#font_0_2" transform="matrix(9.9626,0,0,-9.9626,15.711671,13.408009)"/>
<symbol id="font_0_1">
<path d="M .421 .34200005 C .421 .42200003 .416 .50200006 .381 .57600006 C .335 .67200008 .25300003 .688 .211 .688 C .15100001 .688 .07800001 .66200008 .037000006 .56900009 C .0050000029 .5 0 .42200003 0 .34200005 C 0 .26700003 .0040000008 .177 .045000007 .101 C .088 .020000002 .161 0 .21000001 0 C .264 0 .34 .021000002 .384 .116000007 C .416 .185 .421 .263 .421 .34200005 M .21000001 .022000002 C .171 .022000002 .112 .047000003 .094 .143 C .083000008 .20300001 .083000008 .29500003 .083000008 .35400004 C .083000008 .41800005 .083000008 .48400004 .091000009 .53800007 C .11 .65700009 .185 .66600009 .21000001 .66600009 C .243 .66600009 .30900003 .64800009 .328 .549 C .338 .49300004 .338 .41700004 .338 .35400004 C .338 .279 .338 .21100001 .32700003 .147 C .312 .052 .255 .022000002 .21000001 .022000002 Z "/>
</symbol>
<use xlink:href="#font_0_1" transform="matrix(9.9626,0,0,-9.9626,26.983544,13.627186)"/>
<use xlink:href="#font_0_1" transform="matrix(9.9626,0,0,-9.9626,38.753545,13.627186)"/>
<use xlink:href="#font_0_1" transform="matrix(9.9626,0,0,-9.9626,50.523546,13.627186)"/>
<use xlink:href="#font_0_1" transform="matrix(9.9626,0,0,-9.9626,62.293546,13.627186)"/>
<use xlink:href="#font_0_1" transform="matrix(9.9626,0,0,-9.9626,15.213547,26.836186)"/>
<symbol id="font_0_3">
<path d="M .24800003 .37400005 C .33 .40100003 .388 .47100006 .388 .55 C .388 .632 .3 .688 .204 .688 C .10300001 .688 .027000003 .628 .027000003 .55200007 C .027000003 .519 .049000004 .5 .078 .5 C .109000008 .5 .12900001 .522 .12900001 .55100008 C .12900001 .6010001 .082 .6010001 .067 .6010001 C .098 .65000006 .164 .66300007 .20000002 .66300007 C .24100003 .66300007 .29600004 .64100006 .29600004 .55100008 C .29600004 .53900006 .29400004 .48100005 .268 .43700005 C .238 .38900004 .204 .38600005 .17900002 .38500003 C .171 .38400004 .14700002 .38200004 .14000002 .38200004 C .132 .38100005 .125 .38000003 .125 .37000004 C .125 .35900004 .132 .35900004 .14900002 .35900004 L .19300002 .35900004 C .275 .35900004 .312 .29100005 .312 .193 C .312 .057000005 .24300003 .028 .199 .028 C .15600002 .028 .081 .045 .046000005 .104 C .081 .09900001 .11200001 .12100001 .11200001 .15900001 C .11200001 .19500001 .085 .215 .056 .215 C .031999999 .215 0 .201 0 .157 C 0 .06600001 .093 0 .20200002 0 C .32400004 0 .41500003 .091000009 .41500003 .193 C .41500003 .27500005 .35200004 .35300005 .24800003 .37400005 Z "/>
</symbol>
<use xlink:href="#font_0_3" transform="matrix(9.9626,0,0,-9.9626,27.013436,26.836186)"/>
<use xlink:href="#font_0_2" transform="matrix(9.9626,0,0,-9.9626,39.25168,26.617009)"/>
<use xlink:href="#font_0_1" transform="matrix(9.9626,0,0,-9.9626,50.52355,26.836186)"/>
<use xlink:href="#font_0_1" transform="matrix(9.9626,0,0,-9.9626,62.293546,26.836186)"/>
<use xlink:href="#font_0_1" transform="matrix(9.9626,0,0,-9.9626,15.213547,40.04518)"/>
<use xlink:href="#font_0_1" transform="matrix(9.9626,0,0,-9.9626,26.98355,40.04518)"/>
<use xlink:href="#font_0_3" transform="matrix(9.9626,0,0,-9.9626,38.783437,40.04518)"/>
<use xlink:href="#font_0_1" transform="matrix(9.9626,0,0,-9.9626,50.52355,40.04518)"/>
<use xlink:href="#font_0_1" transform="matrix(9.9626,0,0,-9.9626,62.293546,40.04518)"/>
<use xlink:href="#font_0_1" transform="matrix(9.9626,0,0,-9.9626,15.213547,53.25418)"/>
<use xlink:href="#font_0_1" transform="matrix(9.9626,0,0,-9.9626,26.98355,53.25418)"/>
<use xlink:href="#font_0_1" transform="matrix(9.9626,0,0,-9.9626,38.753549,53.25418)"/>
<symbol id="font_0_4">
<path d="M .266 .165 L .266 .078 C .266 .042000005 .26400004 .031000002 .19000001 .031000002 L .16900002 .031000002 L .16900002 0 C .21000001 .003 .26200003 .003 .30400003 .003 C .34600003 .003 .39900003 .003 .44000004 0 L .44000004 .031000002 L .41900004 .031000002 C .34500004 .031000002 .34300003 .042000005 .34300003 .078 L .34300003 .165 L .44300003 .165 L .44300003 .19600001 L .34300003 .19600001 L .34300003 .651 C .34300003 .671 .34300003 .67700007 .32700003 .67700007 C .31800003 .67700007 .31500004 .67700007 .307 .665 L 0 .19600001 L 0 .165 L .266 .165 M .272 .19600001 L .028 .19600001 L .272 .569 L .272 .19600001 Z "/>
</symbol>
<use xlink:href="#font_0_4" transform="matrix(9.9626,0,0,-9.9626,50.41396,53.035005)"/>
<use xlink:href="#font_0_1" transform="matrix(9.9626,0,0,-9.9626,62.293546,53.25418)"/>
<use xlink:href="#font_0_1" transform="matrix(9.9626,0,0,-9.9626,15.213547,66.46318)"/>
<use xlink:href="#font_0_1" transform="matrix(9.9626,0,0,-9.9626,26.98355,66.46318)"/>
<use xlink:href="#font_0_1" transform="matrix(9.9626,0,0,-9.9626,38.753549,66.46318)"/>
<use xlink:href="#font_0_1" transform="matrix(9.9626,0,0,-9.9626,50.52355,66.46318)"/>
<use xlink:href="#font_0_4" transform="matrix(9.9626,0,0,-9.9626,62.183958,66.244)"/>
<symbol id="font_1_1">
<path d="M 0 0 L .069000009 0 L .069000009 1.7300001 L .33300004 1.7300001 L .33300004 1.7990002 L 0 1.7990002 L 0 0 Z "/>
</symbol>
<symbol id="font_1_5">
<path d="M 0 0 L .069000009 0 L .069000009 .602 L 0 .602 L 0 0 Z "/>
</symbol>
<symbol id="font_1_3">
<path d="M 0 0 L .33300004 0 L .33300004 .069000009 L .069000009 .069000009 L .069000009 1.799 L 0 1.799 L 0 0 Z "/>
</symbol>
<use xlink:href="#font_1_1" transform="matrix(9.9626,0,0,-9.9626,3.2478076,18.683178)"/>
<use xlink:href="#font_1_5" transform="matrix(9.9626,0,0,-9.9626,3.2478076,24.670525)"/>
<use xlink:href="#font_1_5" transform="matrix(9.9626,0,0,-9.9626,3.2478076,30.648526)"/>
<use xlink:href="#font_1_5" transform="matrix(9.9626,0,0,-9.9626,3.2478076,36.625528)"/>
<use xlink:href="#font_1_5" transform="matrix(9.9626,0,0,-9.9626,3.2478076,42.603528)"/>
<use xlink:href="#font_1_5" transform="matrix(9.9626,0,0,-9.9626,3.2478076,48.581529)"/>
<use xlink:href="#font_1_5" transform="matrix(9.9626,0,0,-9.9626,3.2478076,54.55853)"/>
<use xlink:href="#font_1_3" transform="matrix(9.9626,0,0,-9.9626,3.2478076,72.47222)"/>
<symbol id="font_1_2">
<path d="M .26400004 0 L .333 0 L .333 1.7990002 L 0 1.7990002 L 0 1.7300001 L .26400004 1.7300001 L .26400004 0 Z "/>
</symbol>
<symbol id="font_1_6">
<path d="M 0 0 L .068999979 0 L .068999979 .602 L 0 .602 L 0 0 Z "/>
</symbol>
<symbol id="font_1_4">
<path d="M .26400004 .069000009 L 0 .069000009 L 0 0 L .333 0 L .333 1.799 L .26400004 1.799 L .26400004 .069000009 Z "/>
</symbol>
<use xlink:href="#font_1_2" transform="matrix(9.9626,0,0,-9.9626,75.13874,18.683178)"/>
<use xlink:href="#font_1_6" transform="matrix(9.9626,0,0,-9.9626,77.76887,24.670525)"/>
<use xlink:href="#font_1_6" transform="matrix(9.9626,0,0,-9.9626,77.76887,30.648526)"/>
<use xlink:href="#font_1_6" transform="matrix(9.9626,0,0,-9.9626,77.76887,36.625528)"/>
<use xlink:href="#font_1_6" transform="matrix(9.9626,0,0,-9.9626,77.76887,42.603528)"/>
<use xlink:href="#font_1_6" transform="matrix(9.9626,0,0,-9.9626,77.76887,48.581529)"/>
<use xlink:href="#font_1_6" transform="matrix(9.9626,0,0,-9.9626,77.76887,54.55853)"/>
<use xlink:href="#font_1_4" transform="matrix(9.9626,0,0,-9.9626,75.13874,72.47222)"/>
<path transform="matrix(1,0,0,-1,40.856,36.616)" stroke-width=".3985" stroke-linecap="butt" stroke-miterlimit="10" stroke-linejoin="miter" fill="none" stroke="#000000" d="M -29.62434 19.61438 L -29.62434 33.22197 L -17.4558 33.22197 L -17.4558 19.61438 Z M -17.4558 33.22197 "/>
<path transform="matrix(1,0,0,-1,40.856,36.616)" stroke-width=".3985" stroke-linecap="butt" stroke-miterlimit="10" stroke-linejoin="miter" fill="none" stroke="#000000" d="M -17.4558 19.61438 L -17.4558 -6.40529 L 5.68576 -6.40529 L 5.68576 19.61438 Z M 5.68576 -6.40529 "/>
<path transform="matrix(1,0,0,-1,40.856,36.616)" stroke-width=".3985" stroke-linecap="butt" stroke-miterlimit="10" stroke-linejoin="miter" fill="none" stroke="#000000" d="M 5.68576 -20.01288 L 5.68576 -6.40529 L 17.85431 -6.40529 L 17.85431 -20.01288 Z M 17.85431 -6.40529 "/>
<path transform="matrix(1,0,0,-1,40.856,36.616)" stroke-width=".3985" stroke-linecap="butt" stroke-miterlimit="10" stroke-linejoin="miter" fill="none" stroke="#000000" d="M 17.85431 -20.01288 L 17.85431 -33.22197 L 29.62434 -33.22197 L 29.62434 -20.01288 Z M 29.62434 -33.22197 "/>
</g>
</svg>
